# xmcd
#
# Track frame offsets: 
#        150
#        10868
#        24700
#        38317
#        50175
#        61857
#        74692
#        86544
#        97722
#        107996
#        121012
#        132518
#        144885
#        155955
#        166632
#        176013
#        187567
#        198689
#        208496
#        218329
#        227784
#        238628
#        249100
#        261364
#
# Disc length: 3661 seconds
#
# Revision: 1
# Processed by: cddbd v1.5.2PL0 Copyright (c) Steve Scherf et al.
# Submitted via: ExactAudioCopy v0.90b4
#
DISCID=480e4b18
DTITLE=Various Artist - Northern Soul's Classiest Rarities Vol. 3
DYEAR=2008
DGENRE=Soul
TTITLE0=Larry Atkins - Ain't That Love Enough
TTITLE1=The Quotations - I Don't Have To Worry
TTITLE2=Ty Karim - You Really Made It Good To Me
TTITLE3=Deana Lucas - Cry It Out Baby
TTITLE4=Don and Ron - I'm So So Sorry
TTITLE5=Harvey and The Seven Sounds - Glamour Girl
TTITLE6=Al McCarther - His True Love For You
TTITLE7=Darrow Fletcher - What Have I Got Now
TTITLE8=Lou Roberts and The Marks - You Fooled Me
TTITLE9="Originals" Of Sight and Sounds - Long Boots
TTITLE10=The Flowers - Got To Get To Know You
TTITLE11=Pat Powdrill and The Powdrills - Together Forever
TTITLE12=The Servicemen - Connie
TTITLE13=Tommy Smiley - I Won't Cry
TTITLE14=Frankie Vance - Can't Break The Habit (Of Your Love)
TTITLE15=Zz Hill - Don't Make Promises(You Can't Keep)
TTITLE16=Charles Drain - Stop And Think About It Baby
TTITLE17=The Gillettes - The Same Identical Thing
TTITLE18=Frank Dell - Baby You've Got It
TTITLE19=The Soul Brothers - Later For You
TTITLE20=Ann Hodge - You're Welcome Back
TTITLE21=Paul Smith - I'll Run
TTITLE22=Brooks O'Dell - The Heartless One
TTITLE23=Eddie and Ernie - Indication
EXTD=
EXTT0=
EXTT1=
EXTT2=
EXTT3=
EXTT4=
EXTT5=
EXTT6=
EXTT7=
EXTT8=
EXTT9=
EXTT10=
EXTT11=
EXTT12=
EXTT13=
EXTT14=
EXTT15=
EXTT16=
EXTT17=
EXTT18=
EXTT19=
EXTT20=
EXTT21=
EXTT22=
EXTT23=
PLAYORDER=
